<?plantuml 1.2026.0?><svg xmlns="http://www.w3.org/2000/svg" xmlns:xlink="http://www.w3.org/1999/xlink" contentStyleType="text/css" data-diagram-type="DESCRIPTION" height="985px" preserveAspectRatio="none" style="width:1362px;height:985px;background:#FFFFFF;" version="1.1" viewBox="0 0 1362 985" width="1362px" zoomAndPan="magnify"><defs/><g><!--cluster S?curit? & Compte (RGPD)--><g class="cluster" data-qualified-name="S.curit. . Compte .RGPD." data-source-line="14" id="ent0008"><rect fill="none" height="243" rx="2.5" ry="2.5" style="stroke:#181818;stroke-width:1;" width="772.17" x="263.49" y="7"/><text fill="#000000" font-family="sans-serif" font-size="14" font-weight="bold" lengthAdjust="spacing" textLength="187.7148" x="555.7176" y="22.5352">S&#233;curit&#233; &amp; Compte (RGPD)</text></g><!--cluster Gestion collection--><g class="cluster" data-qualified-name="Gestion collection" data-source-line="27" id="ent0017"><rect fill="none" height="235" rx="2.5" ry="2.5" style="stroke:#181818;stroke-width:1;" width="1095.7" x="261.01" y="744"/><text fill="#000000" font-family="sans-serif" font-size="14" font-weight="bold" lengthAdjust="spacing" textLength="129.0488" x="744.3356" y="759.5352">Gestion collection</text></g><!--cluster Listes personnalis?es--><g class="cluster" data-qualified-name="Listes personnalis.es" data-source-line="40" id="ent0026"><rect fill="none" height="103" rx="2.5" ry="2.5" style="stroke:#181818;stroke-width:1;" width="272.7" x="237.9" y="617"/><text fill="#000000" font-family="sans-serif" font-size="14" font-weight="bold" lengthAdjust="spacing" textLength="155.6816" x="296.4092" y="632.5352">Listes personnalis&#233;es</text></g><!--cluster Administration--><g class="cluster" data-qualified-name="Administration" data-source-line="44" id="ent0028"><rect fill="none" height="251" rx="2.5" ry="2.5" style="stroke:#181818;stroke-width:1;" width="260.74" x="794.6" y="321"/><text fill="#000000" font-family="sans-serif" font-size="14" font-weight="bold" lengthAdjust="spacing" textLength="108.0078" x="870.9661" y="336.5352">Administration</text></g><!--entity UC_Auth--><g class="entity" data-qualified-name="S.curit. . Compte .RGPD..UC_Auth" data-source-line="15" id="ent0009"><ellipse cx="374.2537" cy="106.0007" fill="#F1F1F1" rx="94.7537" ry="21.3507" style="stroke:#181818;stroke-width:0.5;"/><text fill="#000000" font-family="sans-serif" font-size="14" lengthAdjust="spacing" textLength="163.9463" x="292.2806" y="110.7449">S'inscrire / Se connecter</text></g><!--entity UC_ForgotPwd--><g class="entity" data-qualified-name="S.curit. . Compte .RGPD..UC_ForgotPwd" data-source-line="16" id="ent0010"><ellipse cx="924.9696" cy="62.9979" fill="#F1F1F1" rx="94.6896" ry="21.3379" style="stroke:#181818;stroke-width:0.5;"/><text fill="#000000" font-family="sans-serif" font-size="14" lengthAdjust="spacing" textLength="163.8027" x="843.0682" y="67.7421">R&#233;cup&#233;rer mot de passe</text></g><!--entity UC_Profile--><g class="entity" data-qualified-name="S.curit. . Compte .RGPD..UC_Profile" data-source-line="17" id="ent0011"><ellipse cx="374.2543" cy="199.0049" fill="#F1F1F1" rx="70.4743" ry="16.4949" style="stroke:#181818;stroke-width:0.5;"/><text fill="#000000" font-family="sans-serif" font-size="14" lengthAdjust="spacing" textLength="106.8389" x="320.8349" y="203.749">G&#233;rer son profil</text></g><!--entity UC_DeleteAcc--><g class="entity" data-qualified-name="S.curit. . Compte .RGPD..UC_DeleteAcc" data-source-line="18" id="ent0012"><ellipse cx="924.9667" cy="213.9953" fill="#F1F1F1" rx="90.4267" ry="20.4853" style="stroke:#181818;stroke-width:0.5;"/><text fill="#000000" font-family="sans-serif" font-size="14" lengthAdjust="spacing" textLength="154.1982" x="847.8675" y="218.7395">Supprimer son compte</text></g><!--entity UC_Export--><g class="entity" data-qualified-name="S.curit. . Compte .RGPD..UC_Export" data-source-line="19" id="ent0013"><ellipse cx="924.9671" cy="139.0034" fill="#F1F1F1" rx="87.0671" ry="19.8134" style="stroke:#181818;stroke-width:0.5;"/><text fill="#000000" font-family="sans-serif" font-size="14" lengthAdjust="spacing" textLength="146.5352" x="851.6996" y="143.7476">Exporter ses donn&#233;es</text></g><!--entity UC_Search--><g class="entity" data-qualified-name="Gestion collection.UC_Search" data-source-line="28" id="ent0018"><ellipse cx="1251.5314" cy="800.9963" fill="#F1F1F1" rx="89.1814" ry="20.2363" style="stroke:#181818;stroke-width:0.5;"/><text fill="#000000" font-family="sans-serif" font-size="14" lengthAdjust="spacing" textLength="151.3682" x="1175.8473" y="805.7404">Rechercher (API TVDB)</text></g><!--entity UC_Add--><g class="entity" data-qualified-name="Gestion collection.UC_Add" data-source-line="29" id="ent0019"><ellipse cx="924.973" cy="809.9966" fill="#F1F1F1" rx="87.783" ry="19.9566" style="stroke:#181818;stroke-width:0.5;"/><text fill="#000000" font-family="sans-serif" font-size="14" lengthAdjust="spacing" textLength="148.1758" x="850.8851" y="814.7407">Ajouter &#224; la collection</text></g><!--entity UC_ManageMedia--><g class="entity" data-qualified-name="Gestion collection.UC_ManageMedia" data-source-line="30" id="ent0020"><ellipse cx="374.2477" cy="946.9995" fill="#F1F1F1" rx="69.6977" ry="16.3395" style="stroke:#181818;stroke-width:0.5;"/><text fill="#000000" font-family="sans-serif" font-size="14" lengthAdjust="spacing" textLength="104.8701" x="321.8126" y="951.7437">G&#233;rer un m&#233;dia</text></g><!--entity UC_Rate--><g class="entity" data-qualified-name="Gestion collection.UC_Rate" data-source-line="31" id="ent0021"><ellipse cx="374.2493" cy="797.9979" fill="#F1F1F1" rx="81.4893" ry="18.6979" style="stroke:#181818;stroke-width:0.5;"/><text fill="#000000" font-family="sans-serif" font-size="14" lengthAdjust="spacing" textLength="133.5879" x="307.4554" y="802.742">Noter / Commenter</text></g><!--entity UC_Report--><g class="entity" data-qualified-name="Gestion collection.UC_Report" data-source-line="32" id="ent0022"><ellipse cx="374.2484" cy="873.9977" fill="#F1F1F1" rx="97.2384" ry="21.8477" style="stroke:#181818;stroke-width:0.5;"/><text fill="#000000" font-family="sans-serif" font-size="14" lengthAdjust="spacing" textLength="169.4902" x="289.5033" y="878.7418">Signaler un commentaire</text></g><!--entity UC_Lists--><g class="entity" data-qualified-name="Listes personnalis.es.UC_Lists" data-source-line="41" id="ent0027"><ellipse cx="374.2487" cy="677.9997" fill="#F1F1F1" rx="120.3487" ry="26.4697" style="stroke:#181818;stroke-width:0.5;"/><text fill="#000000" font-family="sans-serif" font-size="14" lengthAdjust="spacing" textLength="81.9766" x="333.2604" y="668.9965">CRUD Listes</text><text fill="#000000" font-family="sans-serif" font-size="14" lengthAdjust="spacing" textLength="207.4023" x="270.5475" y="685.4848">(Cr&#233;er, Renommer, Supprimer)</text></g><!--entity UC_Mod--><g class="entity" data-qualified-name="Administration.UC_Mod" data-source-line="45" id="ent0029"><ellipse cx="924.9736" cy="379.0007" fill="#F1F1F1" rx="104.4536" ry="23.2907" style="stroke:#181818;stroke-width:0.5;"/><text fill="#000000" font-family="sans-serif" font-size="14" lengthAdjust="spacing" textLength="185.4043" x="832.2715" y="383.7449">Supprimer un commentaire</text></g><!--entity UC_Dash--><g class="entity" data-qualified-name="Administration.UC_Dash" data-source-line="46" id="ent0030"><ellipse cx="924.9679" cy="454.0036" fill="#F1F1F1" rx="70.0179" ry="16.4036" style="stroke:#181818;stroke-width:0.5;"/><text fill="#000000" font-family="sans-serif" font-size="14" lengthAdjust="spacing" textLength="105.6836" x="872.1261" y="458.7477">Voir Dashboard</text></g><!--entity UC_Sync--><g class="entity" data-qualified-name="Administration.UC_Sync" data-source-line="47" id="ent0031"><ellipse cx="924.9742" cy="531.0048" fill="#F1F1F1" rx="114.3742" ry="25.2748" style="stroke:#181818;stroke-width:0.5;"/><text fill="#000000" font-family="sans-serif" font-size="14" lengthAdjust="spacing" textLength="206.9307" x="821.5089" y="535.749">Mettre &#224; jour les m&#233;tadonn&#233;es</text></g><!--entity Guest--><g class="entity" data-qualified-name="Guest" data-source-line="5" id="ent0002"><ellipse cx="33" cy="310.76" fill="#F1F1F1" rx="16" ry="16" style="stroke:#181818;stroke-width:0.5;"/><path d="M33,330.76 C37,330.76 40,330.76 44,326.76 C52,326.76 60,334.76 60,342.76 L60,346.76 C60,350.76 56,354.76 52,354.76 L14,354.76 C10,354.76 6,350.76 6,346.76 L6,342.76 C6,334.76 14,326.76 22,326.76 C26,330.76 29,330.76 33,330.76" fill="#F1F1F1" style="stroke:#181818;stroke-width:0.5;"/><text fill="#000000" font-family="sans-serif" font-size="14" lengthAdjust="spacing" textLength="51.8369" x="7.0815" y="368.7952">Visiteur</text></g><!--entity User--><g class="entity" data-qualified-name="User" data-source-line="6" id="ent0003"><ellipse cx="156.1992" cy="560.76" fill="#F1F1F1" rx="16" ry="16" style="stroke:#181818;stroke-width:0.5;"/><path d="M156.1992,580.76 C160.1992,580.76 163.1992,580.76 167.1992,576.76 C175.1992,576.76 183.1992,584.76 183.1992,592.76 L183.1992,596.76 C183.1992,600.76 179.1992,604.76 175.1992,604.76 L137.1992,604.76 C133.1992,604.76 129.1992,600.76 129.1992,596.76 L129.1992,592.76 C129.1992,584.76 137.1992,576.76 145.1992,576.76 C149.1992,580.76 152.1992,580.76 156.1992,580.76" fill="#F1F1F1" style="stroke:#181818;stroke-width:0.5;"/><text fill="#000000" font-family="sans-serif" font-size="14" lengthAdjust="spacing" textLength="69.3984" x="121.5" y="618.7952">Utilisateur</text></g><!--entity Admin--><g class="entity" data-qualified-name="Admin" data-source-line="7" id="ent0004"><ellipse cx="374.2447" cy="356.76" fill="#F1F1F1" rx="16" ry="16" style="stroke:#181818;stroke-width:0.5;"/><path d="M374.2447,376.76 C378.2447,376.76 381.2447,376.76 385.2447,372.76 C393.2447,372.76 401.2447,380.76 401.2447,388.76 L401.2447,392.76 C401.2447,396.76 397.2447,400.76 393.2447,400.76 L355.2447,400.76 C351.2447,400.76 347.2447,396.76 347.2447,392.76 L347.2447,388.76 C347.2447,380.76 355.2447,372.76 363.2447,372.76 C367.2447,376.76 370.2447,376.76 374.2447,376.76" fill="#F1F1F1" style="stroke:#181818;stroke-width:0.5;"/><text fill="#000000" font-family="sans-serif" font-size="14" lengthAdjust="spacing" textLength="101.6094" x="323.44" y="414.7952">Administrateur</text></g><!--entity Cron--><g class="entity" data-qualified-name="Cron" data-source-line="8" id="ent0005"><ellipse cx="374.2479" cy="468.76" fill="#F1F1F1" rx="16" ry="16" style="stroke:#181818;stroke-width:0.5;"/><path d="M374.2479,488.76 C378.2479,488.76 381.2479,488.76 385.2479,484.76 C393.2479,484.76 401.2479,492.76 401.2479,500.76 L401.2479,504.76 C401.2479,508.76 397.2479,512.76 393.2479,512.76 L355.2479,512.76 C351.2479,512.76 347.2479,508.76 347.2479,504.76 L347.2479,500.76 C347.2479,492.76 355.2479,484.76 363.2479,484.76 C367.2479,488.76 370.2479,488.76 374.2479,488.76" fill="#F1F1F1" style="stroke:#181818;stroke-width:0.5;"/><text fill="#000000" font-family="sans-serif" font-size="14" lengthAdjust="spacing" textLength="102.1357" x="323.18" y="526.7952">Syst&#232;me (Cron)</text></g><!--reverse link Guest to User--><g class="link" data-entity-1="ent0002" data-entity-2="ent0003" data-link-type="extension" data-source-line="11" id="lnk6"><path d="M60.7914,388.2574 C83.4914,435.0874 113.46,496.91 136.2,543.8" fill="none" id="Guest-backto-User" style="stroke:#181818;stroke-width:1;"/><polygon fill="none" points="52.94,372.06,55.3923,390.8745,66.1905,385.6403,52.94,372.06" style="stroke:#181818;stroke-width:1;"/></g><!--reverse link User to Admin--><g class="link" data-entity-1="ent0003" data-entity-2="ent0004" data-link-type="extension" data-source-line="12" id="lnk7"><path d="M173.2279,526.6931 C183.9079,493.6631 197.97,464.35 229.9,435 C255.86,411.13 293.16,396.99 323.21,388.89" fill="none" id="User-backto-Admin" style="stroke:#181818;stroke-width:1;"/><polygon fill="none" points="167.69,543.82,178.9368,528.539,167.5189,524.8471,167.69,543.82" style="stroke:#181818;stroke-width:1;"/></g><!--reverse link UC_Profile to UC_DeleteAcc--><g class="link" data-entity-1="ent0011" data-entity-2="ent0012" data-link-type="dependency" data-source-line="22" id="lnk14"><path d="M450.7378,201.0638 C549.9478,203.7738 726.18,208.59 835.08,211.57" fill="none" id="UC_Profile-backto-UC_DeleteAcc" style="stroke:#181818;stroke-width:1;stroke-dasharray:7,7;"/><polygon fill="#181818" points="444.74,200.9,453.6274,205.1443,449.7381,201.0365,453.8459,197.1472,444.74,200.9" style="stroke:#181818;stroke-width:1;"/><text fill="#000000" font-family="sans-serif" font-size="13" lengthAdjust="spacing" textLength="57.1924" x="624.1" y="199.7984">&#171;extend&#187;</text></g><!--reverse link UC_Profile to UC_Export--><g class="link" data-entity-1="ent0011" data-entity-2="ent0013" data-link-type="dependency" data-source-line="23" id="lnk15"><path d="M442.6516,190.2098 C470.1316,186.6998 497,183.38 526.6,180 C636.5,167.43 763.71,154.61 844,146.73" fill="none" id="UC_Profile-backto-UC_Export" style="stroke:#181818;stroke-width:1;stroke-dasharray:7,7;"/><polygon fill="#181818" points="436.7,190.97,446.1343,193.7975,441.6597,190.3365,445.1207,185.8619,436.7,190.97" style="stroke:#181818;stroke-width:1;"/><text fill="#000000" font-family="sans-serif" font-size="13" lengthAdjust="spacing" textLength="57.1924" x="624.1" y="150.4084">&#171;extend&#187;</text></g><!--reverse link UC_Auth to UC_ForgotPwd--><g class="link" data-entity-1="ent0009" data-entity-2="ent0010" data-link-type="dependency" data-source-line="24" id="lnk16"><path d="M470.3017,98.5514 C572.4317,90.5514 732.88,77.97 834.98,69.97" fill="none" id="UC_Auth-backto-UC_ForgotPwd" style="stroke:#181818;stroke-width:1;stroke-dasharray:7,7;"/><polygon fill="#181818" points="464.32,99.02,473.6049,102.305,469.3047,98.6295,472.9801,94.3294,464.32,99.02" style="stroke:#181818;stroke-width:1;"/><text fill="#000000" font-family="sans-serif" font-size="13" lengthAdjust="spacing" textLength="57.1924" x="624.1" y="71.0984">&#171;extend&#187;</text></g><!--link UC_Add to UC_Search--><g class="link" data-entity-1="ent0019" data-entity-2="ent0018" data-link-type="dependency" data-source-line="35" id="lnk23"><path d="M1012.52,807.6 C1058.9,806.31 1109.9223,804.896 1156.5223,803.606" fill="none" id="UC_Add-to-UC_Search" style="stroke:#181818;stroke-width:1;stroke-dasharray:7,7;"/><polygon fill="#181818" points="1162.52,803.44,1153.4128,799.6906,1157.5219,803.5784,1153.6341,807.6875,1162.52,803.44" style="stroke:#181818;stroke-width:1;"/><text fill="#000000" font-family="sans-serif" font-size="13" lengthAdjust="spacing" textLength="59.3569" x="1072.34" y="800.9984">&#171;include&#187;</text></g><!--link UC_Rate to UC_Add--><g class="link" data-entity-1="ent0021" data-entity-2="ent0019" data-link-type="dependency" data-source-line="36" id="lnk24"><path d="M455.62,799.76 C557.58,801.99 726.7114,805.6889 831.4914,807.9789" fill="none" id="UC_Rate-to-UC_Add" style="stroke:#181818;stroke-width:1;stroke-dasharray:7,7;"/><polygon fill="#181818" points="837.49,808.11,828.5795,803.9143,832.4912,808.0007,828.4047,811.9124,837.49,808.11" style="stroke:#181818;stroke-width:1;"/><text fill="#000000" font-family="sans-serif" font-size="13" lengthAdjust="spacing" textLength="59.3569" x="620.8852" y="782.9484">&#171;include&#187;</text><text fill="#000000" font-family="sans-serif" font-size="13" lengthAdjust="spacing" textLength="250.0405" x="527.6" y="798.2589">(Constraint: doit &#234;tre dans la collection)</text></g><!--link UC_ManageMedia to UC_Add--><g class="link" data-entity-1="ent0020" data-entity-2="ent0019" data-link-type="dependency" data-source-line="37" id="lnk25"><path d="M425.05,935.39 C452.64,928.91 487.55,920.63 518.6,913 C642.35,882.6 781.1311,846.9821 859.8311,826.6321" fill="none" id="UC_ManageMedia-to-UC_Add" style="stroke:#181818;stroke-width:1;stroke-dasharray:7,7;"/><polygon fill="#181818" points="865.64,825.13,855.9252,823.5105,860.7992,826.3817,857.928,831.2557,865.64,825.13" style="stroke:#181818;stroke-width:1;"/><text fill="#000000" font-family="sans-serif" font-size="13" lengthAdjust="spacing" textLength="59.3569" x="623.1" y="846.3884">&#171;include&#187;</text></g><!--link Guest to UC_Auth--><g class="link" data-entity-1="ent0002" data-entity-2="ent0009" data-link-type="dependency" data-source-line="51" id="lnk32"><path d="M60.96,304.87 C96.81,268.7 163.42,205.73 229.9,165 C257.67,147.99 285.5775,135.9476 313.2275,125.7976" fill="none" id="Guest-to-UC_Auth" style="stroke:#181818;stroke-width:1;"/><polygon fill="#181818" points="318.86,123.73,309.0329,123.0764,314.1663,125.453,311.7897,130.5864,318.86,123.73" style="stroke:#181818;stroke-width:1;"/></g><!--link User to UC_Profile--><g class="link" data-entity-1="ent0003" data-entity-2="ent0011" data-link-type="dependency" data-source-line="54" id="lnk33"><path d="M160.33,543.87 C167.14,467.83 185.59,303.8 220.9,261 C244.43,232.47 277.3299,218.4376 309.8399,210.0576" fill="none" id="User-to-UC_Profile" style="stroke:#181818;stroke-width:1;"/><polygon fill="#181818" points="315.65,208.56,305.9364,206.9331,310.8083,209.808,307.9333,214.6799,315.65,208.56" style="stroke:#181818;stroke-width:1;"/></g><!--link User to UC_Search--><g class="link" data-entity-1="ent0003" data-entity-2="ent0018" data-link-type="dependency" data-source-line="55" id="lnk34"><path d="M162.36,543.87 C171.92,478.05 194.71,349.7 229.9,323 C323.1,252.29 909.89,233.17 1063.34,340 C1217.71,447.47 1244.5251,699.6617 1249.2051,774.4117" fill="none" id="User-to-UC_Search" style="stroke:#181818;stroke-width:1;"/><polygon fill="#181818" points="1249.58,780.4,1253.0098,771.1676,1249.2676,775.4098,1245.0254,771.6675,1249.58,780.4" style="stroke:#181818;stroke-width:1;"/></g><!--link User to UC_Add--><g class="link" data-entity-1="ent0003" data-entity-2="ent0019" data-link-type="dependency" data-source-line="56" id="lnk35"><path d="M191.19,585.04 C255.98,589.56 401.13,602.79 518.6,636 C661.57,676.42 815.3342,752.7175 883.9942,788.6575" fill="none" id="User-to-UC_Add" style="stroke:#181818;stroke-width:1;"/><polygon fill="#181818" points="889.31,791.44,883.1914,783.7223,884.8802,789.1212,879.4813,790.81,889.31,791.44" style="stroke:#181818;stroke-width:1;"/></g><!--link User to UC_ManageMedia--><g class="link" data-entity-1="ent0003" data-entity-2="ent0020" data-link-type="dependency" data-source-line="57" id="lnk36"><path d="M160.66,622.13 C168.38,700.35 189.57,872.02 229.9,913 C249.27,932.69 271.8761,940.932 298.4061,944.902" fill="none" id="User-to-UC_ManageMedia" style="stroke:#181818;stroke-width:1;"/><polygon fill="#181818" points="304.34,945.79,296.0311,940.5021,299.3951,945.05,294.8471,948.414,304.34,945.79" style="stroke:#181818;stroke-width:1;"/></g><!--link User to UC_Rate--><g class="link" data-entity-1="ent0003" data-entity-2="ent0021" data-link-type="dependency" data-source-line="58" id="lnk37"><path d="M170.74,621.97 C182.62,651.7 202.34,692.15 229.9,720 C257.9,748.29 292.8084,766.706 323.6084,779.646" fill="none" id="User-to-UC_Rate" style="stroke:#181818;stroke-width:1;"/><polygon fill="#181818" points="329.14,781.97,322.3919,774.7962,324.5303,780.0333,319.2932,782.1717,329.14,781.97" style="stroke:#181818;stroke-width:1;"/></g><!--link User to UC_Report--><g class="link" data-entity-1="ent0003" data-entity-2="ent0022" data-link-type="dependency" data-source-line="59" id="lnk38"><path d="M157.31,621.95 C159.64,676.91 172.2,776.86 229.9,834 C245.14,849.09 259.7953,856.9362 280.4453,862.8962" fill="none" id="User-to-UC_Report" style="stroke:#181818;stroke-width:1;"/><polygon fill="#181818" points="286.21,864.56,278.6722,858.2212,281.4061,863.1735,276.4537,865.9074,286.21,864.56" style="stroke:#181818;stroke-width:1;"/></g><!--link User to UC_Lists--><g class="link" data-entity-1="ent0003" data-entity-2="ent0027" data-link-type="dependency" data-source-line="60" id="lnk39"><path d="M190.96,597.84 C225.25,612.93 273.4173,634.1054 313.6573,651.7954" fill="none" id="User-to-UC_Lists" style="stroke:#181818;stroke-width:1;"/><polygon fill="#181818" points="319.15,654.21,312.5208,646.9262,314.5728,652.1978,309.3012,654.2498,319.15,654.21" style="stroke:#181818;stroke-width:1;"/></g><!--link Admin to UC_Mod--><g class="link" data-entity-1="ent0004" data-entity-2="ent0029" data-link-type="dependency" data-source-line="63" id="lnk40"><path d="M425.4,379 C514.49,379 696.06,379 814.03,379" fill="none" id="Admin-to-UC_Mod" style="stroke:#181818;stroke-width:1;"/><polygon fill="#181818" points="820.03,379,811.03,375,815.03,379,811.03,383,820.03,379" style="stroke:#181818;stroke-width:1;"/></g><!--link Admin to UC_Dash--><g class="link" data-entity-1="ent0004" data-entity-2="ent0030" data-link-type="dependency" data-source-line="64" id="lnk41"><path d="M425.4,385.85 C526.59,399.69 748.9053,430.0673 857.8953,444.9673" fill="none" id="Admin-to-UC_Dash" style="stroke:#181818;stroke-width:1;"/><polygon fill="#181818" points="863.84,445.78,855.4647,440.5978,858.8861,445.1028,854.3811,448.5241,863.84,445.78" style="stroke:#181818;stroke-width:1;"/></g><!--link Cron to UC_Sync--><g class="link" data-entity-1="ent0005" data-entity-2="ent0031" data-link-type="dependency" data-source-line="67" id="lnk42"><path d="M425.4,494.66 C513.43,501.07 691.6359,514.064 809.8159,522.674" fill="none" id="Cron-to-UC_Sync" style="stroke:#181818;stroke-width:1;"/><polygon fill="#181818" points="815.8,523.11,807.1144,518.4666,810.8132,522.7467,806.5331,526.4455,815.8,523.11" style="stroke:#181818;stroke-width:1;"/></g><?plantuml-src TLN1Zjem4BtdAqPxw89KsFiA8L7OqagbGb0uLQhSP1RSJUp8ThIxQlilFIxzZVnOntQSn9H5GafctjZFRvudETuRC18KFnmDP5nXQhWKYNxWecIA5L2oz84TS6kUSmIRPkAGOm_0KYELJxD7rBB0974nkDfppGrMwWgOXcM5seJCpl2SQzOcTnfLoCsoWWkkZUhIBXJossTjwfS2OJ1NKWmTm3uboJLyg4-A6-8Bjx0JlWveNwY4s-DjU0Z1G146h39758RVy_eqJ1nRcFmQZJmtL-DUFPUaqONerAUqeath4xo1kInAGymso_M2cFrCW7wLnfHf2xtcGgUAL8ORs2AaKWXI51iDvjzcn24ksTZLIpeLRLz8QX5IHxJ6KF5UgeCqwySiBblw2Yq5b4hUyppWr-uDptXLPQbuqHIaxWoXO84v6fobQLnozrHAPMm5QiZe7FK9TQZnoSHLNCFTaq6XoLK4h1ewBjNHWSbu76r6xPjCq1Pcq-ahOB_BHQJLCS1QXMBaxruBbzHhxawUv_u2_DUw3QP7LFOFWzdw8tpPBzuDmtcto2WL5yn-oChgK_-1d4KhDwtEBhUCF5dKfuop05mnGIHNIA6uuBEqwzzOpnLatCv56xeuPmtc1y5olthguOnSs1PWlr-R-eLkkBOq32Vh1qsp3CRZQNTUfoSNQLvbs4blDmyuMnA1uAiOpCa8TBUvCBTa76wW_cleGcIC_14fDGnBzXHuTUMedvzeUj01IbJaPpeurzwTPpsTRtOBy5ZBIn681iG6XLM8djfhqJRQWdMqLMzONR9DTxCkAx-IPoxOIwvWmVJnksGgQoyX1MBS2erLZTn5FbCG-iNEh-BsMQIMCBKLSyTHjpEl6NAZqRITFH6k6tmD90oFVgpnVZzahTr_xpku7tS-ZGBUX_sGLpoYvGUm7-rX1v8n2ZZ1UbKGFXg9_LAqtAqu_m00?></g></svg>